<?xml version="1.0" standalone="no"?>
<!DOCTYPE svg PUBLIC "-//W3C//DTD SVG 20010904//EN"
 "http://www.w3.org/TR/2001/REC-SVG-20010904/DTD/svg10.dtd">
<svg version="1.0" xmlns="http://www.w3.org/2000/svg"
 width="100.000000pt" height="100.000000pt" viewBox="0 0 100.000000 100.000000"
 preserveAspectRatio="xMidYMid meet">
<metadata>
Created by potrace 1.14, written by Peter Selinger 2001-2017
</metadata>
<g transform="translate(0.000000,100.000000) scale(0.100000,-0.100000)"
fill="#000000" stroke="none">
<path d="M321 925 c-17 -50 -22 -56 -72 -76 l-41 -16 28 -10 c16 -6 37 -14 47
-17 9 -3 20 -14 23 -23 3 -10 11 -31 19 -48 l13 -30 11 41 c13 48 22 57 75 74
l40 13 -50 18 c-46 18 -52 23 -65 67 l-15 47 -13 -40z"/>
<path d="M627 734 c-1 -1 -24 -4 -52 -6 -110 -9 -225 -92 -272 -194 -29 -63
-33 -83 -34 -151 -3 -145 108 -295 244 -335 63 -18 164 -15 224 7 89 32 176
122 213 219 11 29 10 29 -12 12 -107 -76 -238 -67 -328 24 -103 102 -99 261 7
357 20 18 45 35 55 39 27 8 22 21 -12 26 -17 3 -31 4 -33 2z"/>
<path d="M156 703 c-8 -36 -38 -63 -71 -64 -14 0 -8 -6 19 -18 29 -13 43 -26
51 -52 l12 -34 12 36 c9 27 20 38 49 49 l37 13 -34 12 c-26 8 -39 21 -51 51
l-17 39 -7 -32z"/>
</g>
</svg>
